<svg xmlns="http://www.w3.org/2000/svg">
  <symbol id="phone" viewBox="0 0 24 24">
    <path fill="currentColor" d="M16.5562 12.9062L16.1007 13.359C16.1007 13.359 15.0181 14.4355 12.0631 11.4972C9.10812 8.55901 10.1907 7.48257 10.1907 7.48257L10.4775 7.19738C11.1841 6.49484 11.2507 5.36691 10.6342 4.54348L9.37326 2.85908C8.61028 1.83992 7.13596 1.70529 6.26145 2.57483L4.69185 4.13552C4.25823 4.56668 3.96765 5.12559 4.00289 5.74561C4.09304 7.33182 4.81071 10.7447 8.81536 14.7266C13.0621 18.9492 17.0468 19.117 18.6763 18.9651C19.1917 18.9171 19.6399 18.6546 20.0011 18.2954L21.4217 16.883C22.3806 15.9295 22.1102 14.2949 20.8833 13.628L18.9728 12.5894C18.1672 12.1515 17.1858 12.2801 16.5562 12.9062Z" />
  </symbol>

  <symbol id="phone-filled" viewBox="0 0 12 16">
    <path fill-rule="evenodd" fill="currentColor" d="M4.570,8.791 C5.299,9.716 6.452,11.588 7.476,10.675 C8.360,9.886 8.572,9.672 9.599,10.273 C10.266,10.663 12.213,12.759 12.006,13.802 C11.987,13.898 11.926,14.150 11.825,14.307 C11.494,14.826 10.896,15.564 9.805,15.951 C9.512,16.054 9.134,15.990 8.725,15.895 C7.412,15.591 4.848,12.985 3.920,11.782 C3.756,11.578 3.578,11.344 3.542,11.299 C2.692,10.223 1.982,9.095 1.242,7.217 C0.644,5.700 -0.197,3.222 0.062,2.089 C0.154,1.682 0.262,1.315 0.483,1.098 C1.310,0.290 2.237,0.076 2.849,0.006 C3.037,-0.016 3.289,0.039 3.385,0.064 C4.417,0.335 5.459,2.995 5.520,3.763 C5.614,4.947 5.328,5.042 4.229,5.490 C3.012,5.986 3.882,7.803 4.570,8.791 Z"/>
  </symbol>

  <symbol id="marker-filled" viewBox="0 0 16 21">
    <path fill-rule="evenodd" fill="currentColor" d="M10.079,15.566 C9.416,15.742 7.1000,18.246 7.1000,18.246 C7.1000,18.246 6.790,15.768 6.216,15.638 C2.656,14.836 -0.000,11.684 -0.000,7.918 C-0.000,3.545 3.582,-0.000 7.1000,-0.000 C12.418,-0.000 15.1000,3.545 15.1000,7.918 C15.1000,11.579 13.489,14.660 10.079,15.566 ZM7.1000,6.885 C7.232,6.885 6.609,7.502 6.609,8.262 C6.609,9.023 7.232,9.639 7.1000,9.639 C8.768,9.639 9.391,9.023 9.391,8.262 C9.391,7.502 8.768,6.885 7.1000,6.885 ZM7.1000,19.623 C8.384,19.623 8.696,19.931 8.696,20.311 C8.696,20.691 8.384,20.1000 7.1000,20.1000 C7.616,20.1000 7.304,20.691 7.304,20.311 C7.304,19.931 7.616,19.623 7.1000,19.623 Z"/>
  </symbol>

  <symbol id="vk" viewBox="0 0 20 20">
    <path fill="currentColor" d="M17.802 12.298s1.617 1.597 2.017 2.336a.127.127 0 0 1 .018.035c.163.273.203.487.123.645-.135.261-.592.392-.747.403h-2.858c-.199 0-.613-.052-1.117-.4-.385-.269-.768-.712-1.139-1.145-.554-.643-1.033-1.201-1.518-1.201a.548.548 0 0 0-.18.03c-.367.116-.833.639-.833 2.032 0 .436-.344.684-.585.684H9.674c-.446 0-2.768-.156-4.827-2.327C2.324 10.732.058 5.4.036 5.353c-.141-.345.155-.533.475-.533h2.886c.387 0 .513.234.601.444.102.241.48 1.205 1.1 2.288 1.004 1.762 1.621 2.479 2.114 2.479a.527.527 0 0 0 .264-.07c.644-.354.524-2.654.494-3.128 0-.092-.001-1.027-.331-1.479-.236-.324-.638-.45-.881-.496.065-.094.203-.238.38-.323.441-.22 1.238-.252 2.029-.252h.439c.858.012 1.08.067 1.392.146.628.15.64.557.585 1.943-.016.396-.033.842-.033 1.367 0 .112-.005.237-.005.364-.019.711-.044 1.512.458 1.841a.41.41 0 0 0 .217.062c.174 0 .695 0 2.108-2.425.62-1.071 1.1-2.334 1.133-2.429.028-.053.112-.202.214-.262a.479.479 0 0 1 .236-.056h3.395c.37 0 .621.056.67.196.082.227-.016.92-1.566 3.016-.261.349-.49.651-.691.915-1.405 1.844-1.405 1.937.083 3.337z"/>
  </symbol>

  <symbol id="instagram" viewBox="0 0 24 24">
    <path fill="currentColor" fill-rule="evenodd" clip-rule="evenodd" d="M12 18C15.3137 18 18 15.3137 18 12C18 8.68629 15.3137 6 12 6C8.68629 6 6 8.68629 6 12C6 15.3137 8.68629 18 12 18ZM12 16C14.2091 16 16 14.2091 16 12C16 9.79086 14.2091 8 12 8C9.79086 8 8 9.79086 8 12C8 14.2091 9.79086 16 12 16Z" />
    <path fill="currentColor" d="M18 5C17.4477 5 17 5.44772 17 6C17 6.55228 17.4477 7 18 7C18.5523 7 19 6.55228 19 6C19 5.44772 18.5523 5 18 5Z" />
    <path fill="currentColor" fill-rule="evenodd" clip-rule="evenodd" d="M1.65396 4.27606C1 5.55953 1 7.23969 1 10.6V13.4C1 16.7603 1 18.4405 1.65396 19.7239C2.2292 20.8529 3.14708 21.7708 4.27606 22.346C5.55953 23 7.23969 23 10.6 23H13.4C16.7603 23 18.4405 23 19.7239 22.346C20.8529 21.7708 21.7708 20.8529 22.346 19.7239C23 18.4405 23 16.7603 23 13.4V10.6C23 7.23969 23 5.55953 22.346 4.27606C21.7708 3.14708 20.8529 2.2292 19.7239 1.65396C18.4405 1 16.7603 1 13.4 1H10.6C7.23969 1 5.55953 1 4.27606 1.65396C3.14708 2.2292 2.2292 3.14708 1.65396 4.27606ZM13.4 3H10.6C8.88684 3 7.72225 3.00156 6.82208 3.0751C5.94524 3.14674 5.49684 3.27659 5.18404 3.43597C4.43139 3.81947 3.81947 4.43139 3.43597 5.18404C3.27659 5.49684 3.14674 5.94524 3.0751 6.82208C3.00156 7.72225 3 8.88684 3 10.6V13.4C3 15.1132 3.00156 16.2777 3.0751 17.1779C3.14674 18.0548 3.27659 18.5032 3.43597 18.816C3.81947 19.5686 4.43139 20.1805 5.18404 20.564C5.49684 20.7234 5.94524 20.8533 6.82208 20.9249C7.72225 20.9984 8.88684 21 10.6 21H13.4C15.1132 21 16.2777 20.9984 17.1779 20.9249C18.0548 20.8533 18.5032 20.7234 18.816 20.564C19.5686 20.1805 20.1805 19.5686 20.564 18.816C20.7234 18.5032 20.8533 18.0548 20.9249 17.1779C20.9984 16.2777 21 15.1132 21 13.4V10.6C21 8.88684 20.9984 7.72225 20.9249 6.82208C20.8533 5.94524 20.7234 5.49684 20.564 5.18404C20.1805 4.43139 19.5686 3.81947 18.816 3.43597C18.5032 3.27659 18.0548 3.14674 17.1779 3.0751C16.2777 3.00156 15.1132 3 13.4 3Z" />
  </symbol>

  <symbol id="rutube" viewBox="0 0 192 192">
    <path fill="currentColor" d="M128.689 47.57H20.396v116.843h30.141V126.4h57.756l26.352 38.013h33.75l-29.058-38.188c9.025-1.401 15.522-4.73 19.493-9.985 3.97-5.255 5.956-13.664 5.956-24.875v-8.759c0-6.657-.721-11.912-1.985-15.941-1.264-4.029-3.43-7.533-6.498-10.686-3.249-2.978-6.858-5.08-11.19-6.481-4.332-1.226-9.747-1.927-16.424-1.927zm-4.873 53.08H50.537V73.321h73.279c4.15 0 7.038.7 8.482 1.927 1.444 1.226 2.347 3.503 2.347 6.832v9.81c0 3.503-.903 5.78-2.347 7.006s-4.331 1.752-8.482 1.752z" style="display:inline;fill:none;stroke:currentColor;stroke-width:12;stroke-linecap:round;stroke-linejoin:round;stroke-dasharray:none;stroke-opacity:1" transform="translate(1.605 -1.99)"/>
    <path fill="currentColor" d="M162.324 45.568c5.52 0 9.998-4.477 9.998-10s-4.478-10-9.998-10c-5.524 0-10.002 4.477-10.002 10s4.478 10 10.002 10z" style="display:inline;fill:currentColor;fill-opacity:1;stroke:none;stroke-width:10.6667;stroke-linecap:round;stroke-linejoin:round;stroke-dasharray:none;stroke-opacity:1" transform="translate(1.605 -1.99)"/>
  </symbol>

  <symbol id="youtube" viewBox="0 0 24 24">
    <path fill="currentColor" d="M19.67 8.14002C19.5811 7.7973 19.4028 7.48433 19.1533 7.23309C18.9038 6.98185 18.5921 6.80134 18.25 6.71001C16.176 6.4654 14.0883 6.35517 12 6.38001C9.91174 6.35517 7.82405 6.4654 5.75001 6.71001C5.40793 6.80134 5.09622 6.98185 4.84674 7.23309C4.59725 7.48433 4.41894 7.7973 4.33001 8.14002C4.10282 9.41396 3.99236 10.706 4.00001 12C3.99198 13.3007 4.10244 14.5994 4.33001 15.88C4.42355 16.2172 4.60391 16.5239 4.85309 16.7696C5.10226 17.0153 5.41153 17.1913 5.75001 17.28C7.82405 17.5246 9.91174 17.6349 12 17.61C14.0883 17.6349 16.176 17.5246 18.25 17.28C18.5885 17.1913 18.8978 17.0153 19.1469 16.7696C19.3961 16.5239 19.5765 16.2172 19.67 15.88C19.8976 14.5994 20.008 13.3007 20 12C20.0077 10.706 19.8972 9.41396 19.67 8.14002ZM10.36 14.39V9.63001L14.55 12L10.36 14.38V14.39Z" />
  </symbol>

  <symbol id="facebook" viewBox="0 0 32 32">
    <path fill="currentColor" d="M21.95 5.005l-3.306-.004c-3.206 0-5.277 2.124-5.277 5.415v2.495H10.05v4.515h3.317l-.004 9.575h4.641l.004-9.575h3.806l-.003-4.514h-3.803v-2.117c0-1.018.241-1.533 1.566-1.533l2.366-.001.01-4.256z"/>
  </symbol>

  <symbol id="telegram" viewBox="0 0 48 48">
    <path fill="currentColor" d="M41.4193 7.30899C41.4193 7.30899 45.3046 5.79399 44.9808 9.47328C44.8729 10.9883 43.9016 16.2908 43.1461 22.0262L40.5559 39.0159C40.5559 39.0159 40.3401 41.5048 38.3974 41.9377C36.4547 42.3705 33.5408 40.4227 33.0011 39.9898C32.5694 39.6652 24.9068 34.7955 22.2086 32.4148C21.4531 31.7655 20.5897 30.4669 22.3165 28.9519L33.6487 18.1305C34.9438 16.8319 36.2389 13.8019 30.8426 17.4812L15.7331 27.7616C15.7331 27.7616 14.0063 28.8437 10.7686 27.8698L3.75342 25.7055C3.75342 25.7055 1.16321 24.0823 5.58815 22.459C16.3807 17.3729 29.6555 12.1786 41.4193 7.30899Z" />
  </symbol>

  <symbol id="whatsapp" viewBox="0 0 40 40">
    <path fill-rule="evenodd" fill="currentColor" d="m32.6 32.3c-3.3 3.3-7.9 5.3-13 5.3q-2.2 0-4.4-0.5-2.1-0.5-4-1.5c-0.2 0-0.5-0.2-0.8-0.4l-6.7 2-2.7 0.8 1.1-2.5c0.6-1.5 0.9-2.5 1.3-3.4 0.2-0.8 0.5-1.6 0.9-2.6-0.2-0.3-0.4-0.5-0.5-0.7q-1.3-2.1-2-4.5-0.7-2.5-0.7-5c0-5 2.1-9.6 5.4-12.9 3.4-3.4 8-5.4 13.1-5.4 2.4 0 4.8 0.5 7 1.4 2.3 0.9 4.3 2.3 6 4 1.7 1.6 3.1 3.7 4 5.9 0.9 2.2 1.4 4.5 1.4 7 0 5.1-2.1 9.7-5.4 13zm1.6-19c-0.8-1.9-2-3.7-3.4-5.1-1.5-1.5-3.2-2.6-5.2-3.4-1.8-0.8-3.9-1.2-6-1.2-4.4 0-8.4 1.7-11.2 4.6-2.9 2.8-4.7 6.8-4.7 11.1q0 2.2 0.6 4.3 0.6 2 1.7 3.9c0.1 0 0.2 0.3 0.4 0.5 0.2 0.3 0.4 0.5 0.4 0.6l0.4 0.6-0.3 0.6c-0.5 1.3-0.8 2.2-1.1 3.1q-0.1 0.5-0.3 1.1l4.7-1.4 0.5-0.2 0.5 0.3c0.1 0 0.3 0.1 0.5 0.3l0.6 0.3q1.7 0.9 3.5 1.3 1.8 0.5 3.8 0.5c4.3 0 8.3-1.8 11.2-4.7 2.8-2.8 4.6-6.7 4.6-11.1 0-2.1-0.4-4.2-1.2-6zm-8.1 5.7c0-3.3-2.7-6-6-6-0.9 0-0.9-1.4 0-1.4 4.1 0 7.4 3.3 7.4 7.4 0 0.9-1.4 0.9-1.4 0zm-5.9-3.1c1.6 0 2.9 1.3 2.9 2.9 0 0.9-1.4 0.9-1.4 0 0-0.9-0.7-1.5-1.5-1.5-0.9 0-0.9-1.4 0-1.4zm-0.1-2.2c2.9 0 5.1 2.3 5.1 5.1 0 0.9-1.3 0.9-1.3 0 0-2.1-1.7-3.7-3.8-3.7-0.9 0-0.9-1.4 0-1.4zm-1.9 7.2c1 0.8 2.6 2.5 3.5 1.3 0.7-1 0.9-1.3 2.1-0.9 0.8 0.2 3.4 1.9 3.4 3.1 0 0.1 0 0.4-0.1 0.5-0.2 0.7-0.6 1.6-1.7 2.3-0.2 0.1-0.7 0.2-1.1 0.2-1.5 0-4.8-2.1-6.1-3.2-0.2-0.1-0.4-0.3-0.5-0.4-1.1-0.9-2.2-1.9-3.4-3.7-1-1.4-2.5-3.8-2.5-5.1 0-0.4 0-0.8 0.2-1.1 0.7-1.1 1.6-1.5 2.2-1.7 0.2-0.1 0.5-0.1 0.6-0.1 1.1 0 2.9 2.6 3.1 3.4 0.4 1.2 0.1 1.3-0.9 2.1-1.2 0.8 0.2 2.5 1.2 3.3z"/>
  </symbol>

  <symbol id="mail-circle" viewBox="0 0 40 40">
    <path fill="transparent" stroke="currentColor" stroke-linejoin="round" stroke-width="2" d="m20 2c9.9 0 18 8.1 18 18 0 9.9-8.1 18-18 18-9.9 0-18-8.1-18-18 0-9.9 8.1-18 18-18z"/>
    <path fill-rule="evenodd" fill="currentColor" stroke="currentColor" stroke-linejoin="round" d="m23.6 21.9c-0.6-0.3-1.1 0.4-0.6 0.8 1.7 1.3 1.8 1.3 3.5 2.6 0.5 0.3 1.1-0.4 0.6-0.8l-3.5-2.6zm-7.2 0c0.5-0.3 1.1 0.4 0.6 0.8-1.7 1.3-1.8 1.3-3.5 2.6-0.5 0.3-1.1-0.4-0.6-0.8l3.5-2.6zm3.1-1.5c0.2 0.2 0.7 0.2 1 0l7.9-6.4q0-0.1-0.1-0.1h-16.6q-0.1 0-0.2 0.1l8 6.4zm0.5 1.1c-0.4 0-0.8-0.1-1.2-0.4l-7.8-6.4v11.7c0 0.4 0.3 0.7 0.7 0.7q8.3 0 16.5 0c0.5 0 0.8-0.3 0.8-0.7v-11.7l-7.8 6.4c-0.4 0.3-0.8 0.4-1.2 0.4zm-8.3 6.5c-0.9 0-1.7-0.7-1.7-1.6v-11.7c0-0.9 0.8-1.7 1.7-1.7q8.3 0 16.6 0c0.9 0 1.7 0.8 1.7 1.7v11.7c0 0.9-0.8 1.6-1.8 1.6h-16.5z"/>
  </symbol>

  <symbol id="viber" viewBox="0 0 24 24">
    <path fill="currentColor" d="M13 4C12.4477 4 12 4.44772 12 5C12 5.55228 12.4477 6 13 6C14.2728 6 15.2557 6.41989 15.9179 7.08211C16.5801 7.74433 17 8.72725 17 10C17 10.5523 17.4477 11 18 11C18.5523 11 19 10.5523 19 10C19 8.27275 18.4199 6.75567 17.3321 5.66789C16.2443 4.58011 14.7272 4 13 4Z" />
    <path fill="currentColor" d="M5.014 8.00613C5.12827 7.1024 6.30277 5.87414 7.23488 6.01043L7.23339 6.00894C8.01251 6.15699 8.65217 7.32965 9.07373 8.10246C9.14298 8.22942 9.20635 8.34559 9.26349 8.44465C9.55041 8.95402 9.3641 9.4701 9.09655 9.68787C9.06561 9.7128 9.03317 9.73855 8.9998 9.76504C8.64376 10.0477 8.18114 10.4149 8.28943 10.7834C8.5 11.5 11 14 12.2296 14.7107C12.6061 14.9283 12.8988 14.5057 13.1495 14.1438C13.2087 14.0583 13.2656 13.9762 13.3207 13.9067C13.5301 13.6271 14.0466 13.46 14.5548 13.736C15.3138 14.178 16.0288 14.6917 16.69 15.27C17.0202 15.546 17.0977 15.9539 16.8689 16.385C16.4659 17.1443 15.3003 18.1456 14.4542 17.9421C12.9764 17.5868 7 15.27 5.08033 8.55801C4.97981 8.26236 4.99645 8.13792 5.01088 8.02991L5.014 8.00613Z" />
    <path fill="currentColor" d="M13 7C12.4477 7 12 7.44772 12 8C12 8.55228 12.4477 9 13 9C13.1748 9 13.4332 9.09745 13.6679 9.33211C13.9025 9.56676 14 9.82523 14 10C14 10.5523 14.4477 11 15 11C15.5523 11 16 10.5523 16 10C16 9.17477 15.5975 8.43324 15.0821 7.91789C14.5668 7.40255 13.8252 7 13 7Z" />
    <path fill="currentColor" fill-rule="evenodd" clip-rule="evenodd" d="M7.51742 23.8312C7.54587 23.8469 7.57508 23.8612 7.60492 23.874C8.14762 24.1074 8.81755 23.5863 10.1574 22.5442L11.5 21.5C14.1884 21.589 16.514 21.2362 18.312 20.6071C20.3227 19.9035 21.9036 18.3226 22.6072 16.3119C23.5768 13.541 23.5768 8.45883 22.6072 5.68794C21.9036 3.67722 20.3227 2.0963 18.312 1.39271C15.1103 0.272407 8.82999 0.293306 5.68806 1.39271C3.67733 2.0963 2.09642 3.67722 1.39283 5.68794C0.423255 8.45883 0.423255 13.541 1.39283 16.3119C2.09642 18.3226 3.67733 19.9035 5.68806 20.6071C6.08252 20.7451 6.52371 20.8965 7 21C7 22.6974 7 23.5461 7.51742 23.8312ZM9 20.9107V19.7909C9 19.5557 8.836 19.3524 8.60597 19.3032C7.84407 19.1403 7.08676 18.9776 6.34862 18.7193C4.91238 18.2168 3.78316 17.0875 3.2806 15.6513C2.89871 14.5599 2.66565 12.8453 2.66565 10.9999C2.66565 9.15453 2.89871 7.43987 3.2806 6.3485C3.78316 4.91227 4.91238 3.78304 6.34862 3.28048C7.61625 2.83692 9.71713 2.56282 11.9798 2.56032C14.2422 2.55782 16.3561 2.82723 17.6514 3.28048C19.0876 3.78304 20.2169 4.91227 20.7194 6.3485C21.1013 7.43987 21.3344 9.15453 21.3344 10.9999C21.3344 12.8453 21.1013 14.5599 20.7194 15.6513C20.2169 17.0875 19.0876 18.2168 17.6514 18.7193C15.5197 19.4652 13.259 19.549 11.0239 19.4828C10.9071 19.4794 10.7926 19.5165 10.7004 19.5882L9 20.9107Z" />
  </symbol>

  <symbol id="ok" viewBox="0 0 512 512">
    <path fill="currentColor" d="M256.018,259.156c71.423,0,129.31-57.899,129.31-129.334C385.327,58.387,327.44,0.5,256.018,0.5 c-71.448,0-129.359,57.887-129.359,129.322C126.658,201.257,184.57,259.156,256.018,259.156z M256.018,66.196 c35.131,0,63.612,28.482,63.612,63.625c0,35.144-28.481,63.625-63.612,63.625c-35.168,0-63.638-28.481-63.638-63.625 C192.38,94.678,220.849,66.196,256.018,66.196z M405.075,274.938c-7.285-14.671-27.508-26.872-54.394-5.701 c-36.341,28.619-94.664,28.619-94.664,28.619s-58.361,0-94.702-28.619c-26.873-21.171-47.083-8.97-54.381,5.701 c-12.75,25.563,1.634,37.926,34.096,58.761c27.721,17.803,65.821,24.452,90.411,26.935l-20.535,20.535 c-28.918,28.905-56.826,56.838-76.201,76.213c-11.59,11.577-11.59,30.354,0,41.931l3.48,3.506c11.59,11.577,30.354,11.577,41.943,0 l76.201-76.214c28.943,28.919,56.851,56.839,76.225,76.214c11.59,11.577,30.354,11.577,41.943,0l3.48-3.506 c11.59-11.59,11.59-30.354,0-41.943l-76.201-76.2l-20.584-20.598c24.614-2.545,62.29-9.22,89.786-26.872 C403.441,312.863,417.801,300.5,405.075,274.938z" />
  </symbol>

  <symbol id="mail" viewBox="0 0 24 24">
    <path fill="none" d="M3 8L8.44992 11.6333C9.73295 12.4886 10.3745 12.9163 11.0678 13.0825C11.6806 13.2293 12.3194 13.2293 12.9322 13.0825C13.6255 12.9163 14.2671 12.4886 15.5501 11.6333L21 8M6.2 19H17.8C18.9201 19 19.4802 19 19.908 18.782C20.2843 18.5903 20.5903 18.2843 20.782 17.908C21 17.4802 21 16.9201 21 15.8V8.2C21 7.0799 21 6.51984 20.782 6.09202C20.5903 5.71569 20.2843 5.40973 19.908 5.21799C19.4802 5 18.9201 5 17.8 5H6.2C5.0799 5 4.51984 5 4.09202 5.21799C3.71569 5.40973 3.40973 5.71569 3.21799 6.09202C3 6.51984 3 7.07989 3 8.2V15.8C3 16.9201 3 17.4802 3.21799 17.908C3.40973 18.2843 3.71569 18.5903 4.09202 18.782C4.51984 19 5.07989 19 6.2 19Z" stroke="currentColor" stroke-width="2" stroke-linecap="round" stroke-linejoin="round"/>
  </symbol>

  <symbol id="works" viewBox="0 0 20 20">
    <path fill-rule="evenodd" fill="currentColor" d="M2.069,19.1000 L2.069,18.621 L17.241,18.621 L17.241,2.759 L19.1000,2.759 L19.1000,19.1000 L2.069,19.1000 ZM-0.000,-0.000 L16.552,-0.000 L16.552,17.931 L-0.000,17.931 L-0.000,-0.000 ZM2.069,13.793 L13.793,13.793 L13.793,2.069 L2.069,2.069 L2.069,13.793 ZM3.448,12.414 L4.1000,9.1000 L6.250,9.1000 L6.250,8.750 L7.500,8.750 L9.655,10.345 L9.1000,8.750 L12.414,7.586 L12.414,12.414 L3.448,12.414 ZM4.1000,6.250 C4.310,6.250 3.750,5.690 3.750,4.1000 C3.750,4.310 4.310,3.750 4.1000,3.750 C5.690,3.750 6.250,4.310 6.250,4.1000 C6.250,5.690 5.690,6.250 4.1000,6.250 Z"/>
  </symbol>

  <symbol id="loupe" viewBox="0 0 25 24">
    <path fill-rule="evenodd" fill="currentColor" d="M23.467,20.199 L19.052,15.796 C20.057,14.207 20.639,12.326 20.639,10.310 C20.639,4.624 16.017,0.015 10.315,0.015 C4.614,0.015 -0.008,4.624 -0.008,10.310 C-0.008,15.996 4.614,20.605 10.315,20.605 C12.326,20.605 14.202,20.031 15.789,19.040 L20.209,23.448 C20.915,24.152 22.059,24.152 22.765,23.448 L23.467,22.747 C24.173,22.044 24.173,20.903 23.467,20.199 ZM10.315,17.756 C6.192,17.756 2.849,14.422 2.849,10.310 C2.849,6.198 6.192,2.864 10.315,2.864 C14.439,2.864 17.782,6.198 17.782,10.310 C17.782,14.422 14.439,17.756 10.315,17.756 Z"/>
  </symbol>
</svg>
